# xmcd
# Track frame offsets:
# 150
# 13574
# 31776
# 47064
# 57896
# 70753
# 89683
# 105690
# 122976
# 136963
# 151137
# 166970
# 182142
# 196439
# 214392
#
# Disc length: 3032 seconds
# Revision: 0
# Processed by: cddbd v1.5.1PL0 Copyright (c) Steve Scherf et al.
# Submitted via: VisiTrax 2.9.10.228 - For more info visit www.synapsa.com
#
DISCID=d10bd60f
DTITLE=Walker, Clay - CB90007
DYEAR=1900
DGENRE=Karaoke
TTITLE0=Live Until I Die
TTITLE1=What's It To You
TTITLE2=Dreaming With My Eyes Open
TTITLE3=If I Could Make A Living
TTITLE4=Who Needs You Baby
TTITLE5=This Woman and This Man
TTITLE6=My Heart Will Never Know
TTITLE7=Hypnotize The Moon
TTITLE8=Bury The Shovel
TTITLE9=Rumor Has It
TTITLE10=One Two I Love You
TTITLE11=Watch This
TTITLE12=Then What
TTITLE13=Ordinary People
TTITLE14=You're Beginning To Get To Me
EXTD=
EXTT0=
EXTT1=
EXTT2=
EXTT3=
EXTT4=
EXTT5=
EXTT6=
EXTT7=
EXTT8=
EXTT9=
EXTT10=
EXTT11=
EXTT12=
EXTT13=
EXTT14=
PLAYORDER=
